# xmcd
# 
# Track frame offsets:
#     150
#     60812
#     103466
#     155203
#     202587
#     249593
#     290167
# 
# Disc length: 4499
# 
# Revision: 0
# Processed by: cddbd v1.5.2PL0 Copyright (c) Steve Scherf et al.
# Submitted via: BonkEnc v1.0.8
# 
DISCID=62119107
DTITLE=Rabbi Twerski - Mesilas Yesharim Disc 4
DYEAR=2010
DGENRE=Speech
TTITLE0=Part 1
TTITLE1=Part 2
TTITLE2=Part 3
TTITLE3=Part 4
TTITLE4=Part 5
TTITLE5=Part 6
TTITLE6=Part 7
EXTD=
EXTT0=
EXTT1=
EXTT2=
EXTT3=
EXTT4=
EXTT5=
EXTT6=
PLAYORDER=
